<?xml version="1.0" encoding="UTF-8"?>
<svg width="21px" height="22px" viewBox="0 0 21 22" version="1.1" xmlns="http://www.w3.org/2000/svg" xmlns:xlink="http://www.w3.org/1999/xlink">
    <!-- Generator: Sketch 52.5 (67469) - http://www.bohemiancoding.com/sketch -->
    <title>分组 3 copy 5</title>
    <desc>Created with Sketch.</desc>
    <g id="Page-1" stroke="none" stroke-width="1" fill="none" fill-rule="evenodd" stroke-linecap="round" stroke-linejoin="round">
        <g id="Apple-TV" transform="translate(-456.000000, -693.000000)" stroke="#E64340">
            <g id="分组-3-copy-5" transform="translate(457.000000, 694.000000)">
                <path d="M16.9642857,4.13793103 L16.9642857,17.2413793 C16.9642857,18.7649234 15.7490586,20 14.25,20 L4.75,20 C3.25094139,20 2.03571429,18.7649234 2.03571429,17.2413793 L2.03571429,4.13793103" id="路径"></path>
                <path d="M0.339285714,3.79310345 L19,3.79310345" id="路径-6"></path>
                <path d="M6.44642857,7.5862069 L6.44642857,15.862069" id="路径-7"></path>
                <path d="M9.16071429,7.5862069 L9.16071429,15.862069" id="路径-7-copy"></path>
                <path d="M12.2142857,7.5862069 L12.2142857,15.862069" id="路径-7-copy-2"></path>
                <path d="M8.82142857,3.79310345 C8.07189927,3.79310345 7.46428571,2.83073759 7.46428571,2.06896552 L7.46428571,1.37931034 C7.46428571,0.617538276 8.07189927,1.59872116e-14 8.82142857,1.59872116e-14 L10.8571429,1.59872116e-14 C11.6066722,1.59872116e-14 12.2142857,0.617538276 12.2142857,1.37931034 L12.2142857,2.06896552 C12.2142857,2.83073759 11.6066722,3.79310345 10.8571429,3.79310345 L8.82142857,3.79310345 Z" id="路径"></path>
            </g>
        </g>
    </g>
</svg>